Coordinates
version=1
nRows=24
nColumns=24
inDegrees=yes

Units are S.I. units (second, meters, Newtons, ...)
Angles are in degrees.

endheader
time	pelvis_tilt	pelvis_list	pelvis_rotation	pelvis_tx	pelvis_ty	pelvis_tz	hip_flexion_r	hip_adduction_r	hip_rotation_r	knee_angle_r	ankle_angle_r	subtalar_angle_r	mtp_angle_r	hip_flexion_l	hip_adduction_l	hip_rotation_l	knee_angle_l	ankle_angle_l	subtalar_angle_l	mtp_angle_l	lumbar_extension	lumbar_bending	lumbar_rotation
      8.32000000	     49.89910985	      1.60712985	     -3.97496301	      0.75761125	      0.96454534	     -0.27477638	     17.03894596	    -14.10942534	      9.30488887	    -62.54487608	      7.31512796	     16.17866012	    -31.56276429	     12.98286421	     -7.82586910	     -2.53034134	    -57.89436389	      1.63310600	     13.54166418	    -48.03370797	      0.00000000	      0.00000000	      0.00000000
      8.33000000	     49.85359755	      1.63862654	     -3.97140759	      0.75750719	      0.96462997	     -0.27478491	     17.08978009	    -14.13737594	      9.30755469	    -62.52611404	      7.28775749	     16.17585879	    -31.57209026	     13.41034879	     -7.79961639	     -2.65333956	    -58.52644487	      0.98646175	     13.50777032	    -45.27452917	      0.00000000	      0.00000000	      0.00000000
      8.34000000	     49.80168080	      1.65972569	     -3.96476719	      0.75751719	      0.96446971	     -0.27484682	     17.15796698	    -14.16019824	      9.30858454	    -62.52036351	      7.26336975	     16.17284656	    -31.57784250	     13.76292736	     -7.77380891	     -2.74092449	    -58.96239321	      0.51862032	     13.54345476	    -42.67533204	      0.00000000	      0.00000000	      0.00000000
      8.35000000	     49.74901526	      1.66914244	     -3.95727111	      0.75756561	      0.96426604	     -0.27491269	     17.23240536	    -14.17424162	      9.30788109	    -62.52477739	      7.24365184	     16.16879590	    -31.57939252	     13.99950229	     -7.74563348	     -2.79315736	    -59.16033720	      0.22858751	     13.63669841	    -40.54483683	      0.00000000	      0.00000000	      0.00000000
      8.36000000	     49.70147757	      1.67171150	     -3.95199927	      0.75757882	      0.96418026	     -0.27493195	     17.29763679	    -14.17903190	      9.30623930	    -62.53178341	      7.22895358	     16.16304106	    -31.57656558	     14.10724182	     -7.71408111	     -2.81820845	    -59.14663855	      0.06424208	     13.75836916	    -39.09508528	      0.00000000	      0.00000000	      0.00000000
      8.37000000	     49.66741773	      1.67394954	     -3.95145363	      0.75755963	      0.96420613	     -0.27490195	     17.33895006	    -14.17796536	      9.30540738	    -62.53371092	      7.21843096	     16.15523269	    -31.57004527	     14.10311887	     -7.68155012	     -2.82842783	    -58.98534453	     -0.04570798	     13.87009655	    -38.41494738	      0.00000000	      0.00000000	      0.00000000
      8.38000000	     49.65616768	      1.67989644	     -3.95652428	      0.75754266	      0.96427896	     -0.27485670	     17.34756704	    -14.17635632	      9.30712658	    -62.52662455	      7.21049084	     16.14560095	    -31.56153705	     14.02587980	     -7.65222800	     -2.83612454	    -58.74638259	     -0.16106235	     13.93571977	    -38.46610850	      0.00000000	      0.00000000	      0.00000000
      8.39000000	     49.67217089	      1.68946220	     -3.96595640	      0.75753532	      0.96436679	     -0.27482313	     17.32390084	    -14.17809467	      9.31190411	    -62.51121592	      7.20341941	     16.13518463	    -31.55355900	     13.91991743	     -7.62894250	     -2.85016126	    -58.48639552	     -0.31226339	     13.93238848	    -39.10075664	      0.00000000	      0.00000000	      0.00000000
      8.40000000	     49.71011858	      1.69966758	     -3.97675747	      0.75751688	      0.96445430	     -0.27480215	     17.27766762	    -14.18347306	      9.31862617	    -62.49103800	      7.19599716	     16.12581019	    -31.54891067	     13.81949963	     -7.61165944	     -2.87371876	    -58.24367124	     -0.49790729	     13.85723796	    -40.09620608	      0.00000000	      0.00000000	      0.00000000
      8.41000000	     49.75620326	      1.70736900	     -3.98577855	      0.75747609	      0.96451588	     -0.27478451	     17.22451288	    -14.18958307	      9.32529938	    -62.47000167	      7.18786700	     16.11972376	    -31.55000409	     13.74194058	     -7.59868748	     -2.90374067	    -58.04106076	     -0.69326671	     13.72745590	    -41.19906792	      0.00000000	      0.00000000	      0.00000000
      8.42000000	     49.79469969	      1.71110977	     -3.99142830	      0.75742985	      0.96453622	     -0.27476835	     17.18026037	    -14.19264910	      9.33028872	    -62.45086896	      7.17952930	     16.11896598	    -31.55827102	     13.69094274	     -7.58878142	     -2.93271586	    -57.89057578	     -0.86328275	     13.57428072	    -42.17063786	      0.00000000	      0.00000000	      0.00000000
      8.43000000	     49.81481481	      1.71094488	     -3.99392853	      0.75740527	      0.96453121	     -0.27475855	     17.15550789	    -14.19041211	      9.33310119	    -62.43507459	      7.17200432	     16.12471017	    -31.57380066	     13.66413788	     -7.58198011	     -2.95243889	    -57.79689972	     -0.97497204	     13.43353193	    -42.82571119	      0.00000000	      0.00000000	      0.00000000
      8.44000000	     49.81378496	      1.70722146	     -3.99404137	      0.75741299	      0.96452438	     -0.27475598	     17.15301641	    -14.18297515	      9.33413641	    -62.42324368	      7.16632558	     16.13680942	    -31.59527061	     13.65845013	     -7.57881011	     -2.95788745	    -57.75977353	     -1.00676169	     13.33599261	    -43.05880864	      0.00000000	      0.00000000	      0.00000000
      8.45000000	     49.79610524	      1.70006273	     -3.99199396	      0.75744138	      0.96451643	     -0.27475388	     17.16834468	    -14.17209678	      9.33375190	    -62.41572299	      7.16308734	     16.15370781	    -31.62015751	     13.67158245	     -7.57928316	     -2.94892928	    -57.77561000	     -0.95397479	     13.30039628	    -42.85448762	      0.00000000	      0.00000000	      0.00000000
      8.46000000	     49.77093554	      1.69009537	     -3.98783894	      0.75747418	      0.96449738	     -0.27474925	     17.19265431	    -14.16006464	      9.33158964	    -62.41272011	      7.16223262	     16.17274224	    -31.64516379	     13.70123196	     -7.58300188	     -2.92908268	    -57.83826489	     -0.83015422	     13.33042710	    -42.28149328	      0.00000000	      0.00000000	      0.00000000
      8.47000000	     49.74864943	      1.67904015	     -3.98233719	      0.75750303	      0.96447048	     -0.27475318	     17.21608920	    -14.14911441	      9.32682660	    -62.41397537	      7.16314624	     16.19076540	    -31.66677041	     13.74340839	     -7.58981696	     -2.90291619	    -57.93911683	     -0.66394979	     13.41572544	    -41.47334432	      0.00000000	      0.00000000	      0.00000000
      8.48000000	     49.73722481	      1.66895909	     -3.97689319	      0.75752144	      0.96444544	     -0.27477861	     17.23055521	    -14.14138467	      9.31915132	    -62.41814669	      7.16497215	     16.20493843	    -31.68181672	     13.79090518	     -7.59976335	     -2.87424183	    -58.06670170	     -0.49183966	     13.53589674	    -40.59998478	      0.00000000	      0.00000000	      0.00000000
      8.49000000	     49.74016724	      1.66127075	     -3.97283387	      0.75752375	      0.96442370	     -0.27482554	     17.23142210	    -14.13855348	      9.30944512	    -62.42244814	      7.16697809	     16.21346324	    -31.68801866	     13.83342440	     -7.61236149	     -2.84560312	    -58.20573070	     -0.34824552	     13.66604163	    -39.83605237	      0.00000000	      0.00000000	      0.00000000
      8.50000000	     49.75621543	      1.65659895	     -3.97089375	      0.75751616	      0.96439762	     -0.27488258	     17.21810928	    -14.14090079	      9.29947790	    -62.42325716	      7.16879789	     16.21601399	    -31.68435220	     13.85933686	     -7.62613085	     -2.81831965	    -58.33578664	     -0.25595495	     13.78223658	    -39.33117086	      0.00000000	      0.00000000	      0.00000000
      8.51000000	     49.77976649	      1.65503773	     -3.97105801	      0.75751619	      0.96436006	     -0.27492892	     17.19383537	    -14.14652448	      9.29086851	    -62.41791986	      7.17047869	     16.21372514	    -31.67122959	     13.85770035	     -7.63891260	     -2.79237222	    -58.43093241	     -0.22022262	     13.86563772	    -39.18674664	      0.00000000	      0.00000000	      0.00000000
      8.52000000	     49.80226338	      1.65648276	     -3.97273640	      0.75753133	      0.96432734	     -0.27494364	     17.16490959	    -14.15140803	      9.28400371	    -62.40701841	      7.17237447	     16.20874994	    -31.65040127	     13.82024575	     -7.64924518	     -2.76591361	    -58.46182470	     -0.22896348	     13.90443618	    -39.44236937	      0.00000000	      0.00000000	      0.00000000
      8.53000000	     49.81543326	      1.66018941	     -3.97475339	      0.75754014	      0.96436012	     -0.27491924	     17.13974390	    -14.15098717	      9.27795436	    -62.39540874	      7.17498205	     16.20354931	    -31.62455673	     13.74385715	     -7.65798074	     -2.73512737	    -58.40197281	     -0.25926587	     13.89363074	    -40.07335435	      0.00000000	      0.00000000	      0.00000000
      8.54000000	     49.81529208	      1.66321790	     -3.97496063	      0.75750714	      0.96451909	     -0.27486413	     17.12695292	    -14.14286817	      9.27170206	    -62.39056219	      7.17877381	     16.20015843	    -31.59667661	     13.63316115	     -7.66836871	     -2.69564537	    -58.23900039	     -0.28790842	     13.83333325	    -40.99937898	      0.00000000	      0.00000000	      0.00000000
      8.55000000	     49.80435589	      1.66026141	     -3.97064512	      0.75743923	      0.96473520	     -0.27480761	     17.13171018	    -14.12864590	      9.26545192	    -62.39836819	      7.18400933	     16.19968587	    -31.56928360	     13.50195003	     -7.68401667	     -2.64552191	    -57.98877684	     -0.30161994	     13.72686982	    -42.10263073	      0.00000000	      0.00000000	      0.00000000
